# xmcd CD database file
# Copyright (C) 1993-1997  Ti Kan
#
# Track frame offsets:
#	187
#	14287
#	30037
#	40500
#	50962
#	71025
#	82575
#	97687
#	108300
#	125250
#	135337
#	153412
#	167212
#	180862
#	193837
#	210375
#	220687
#
# Disc length: 3189 seconds
#
# Revision: 2
# Processed by: cddbd v1.4b41PL1 Copyright (c) Steve Scherf et al.
# Submitted via: xmcd 2.2 PL0
#
DISCID=c90c7311
DTITLE=Bob Brozman - A Truckload of Blues
DYEAR=1900
DGENRE=
TTITLE0=We Gonna Move
TTITLE1=Worryin' The Blues Away
TTITLE2=Let's Get It. Stomp
TTITLE3=Scene Of The Crime
TTITLE4=Old Dog Blues
TTITLE5=Never Hit The Same Place Twice
TTITLE6=I Can't Hardly Get Along
TTITLE7=Stack O Lee Aloha
TTITLE8=Get Your Ashes Hauled
TTITLE9=You Set The Market
TTITLE10=One Of Us Was Wrong
TTITLE11=Backwards Blues
TTITLE12=Yearning And Blue
TTITLE13=Don't Laugh At Me
TTITLE14=Kitchen Man
TTITLE15=Just As Well To Let Her Go
TTITLE16=Come On In My Kitchen
EXTD=
EXTT0=
EXTT1=
EXTT2=
EXTT3=
EXTT4=
EXTT5=
EXTT6=
EXTT7=
EXTT8=
EXTT9=
EXTT10=
EXTT11=
EXTT12=
EXTT13=
EXTT14=
EXTT15=
EXTT16=
PLAYORDER=
